<?xml version="1.0" encoding="UTF-8"?>
<svg width="1808px" height="865px" viewBox="0 0 1808 865" version="1.1" xmlns="http://www.w3.org/2000/svg" xmlns:xlink="http://www.w3.org/1999/xlink">
    <title>Group 6</title>
    <g id="Page-1" stroke="none" stroke-width="1" fill="none" fill-rule="evenodd">
        <g id="Group-6" transform="translate(0, 0.0195)" fill="#FFFFFF" fill-rule="nonzero">
            <g id="حصافة">
                <path d="M1807.05078,531.78125 C1807.05078,547.794271 1801.55794,562.876302 1790.57227,577.027344 C1779.58659,591.178385 1766.83203,600.302083 1752.30859,604.398438 C1687.51172,624.507812 1601.11589,648.713542 1493.12109,677.015625 C1472.63932,741.067708 1456.6263,771.604167 1445.08203,768.625 C1438.7513,767.135417 1435.58594,760.61849 1435.58594,749.074219 C1435.58594,740.88151 1440.61328,718.351562 1450.66797,681.484375 C1373.58203,700.476562 1302.45443,709.972656 1237.28516,709.972656 C1226.48568,709.972656 1221.08594,700.848958 1221.08594,682.601563 C1221.08594,665.471354 1225.64779,648.061849 1234.77148,630.373047 C1243.89518,612.684245 1254.41536,603.839844 1266.33203,603.839844 C1302.82682,603.839844 1347.32812,599.557292 1399.83594,590.992187 C1444.15104,584.289062 1475.80469,577.772135 1494.79688,571.441406 C1519.7474,517.44401 1538.18099,480.576823 1550.09766,460.839844 C1585.10286,403.490885 1618.61849,374.816406 1650.64453,374.816406 C1674.10547,374.816406 1692.16667,382.264323 1704.82812,397.160156 C1710.78646,404.608073 1718.97917,421.179687 1729.40625,446.875 C1739.08854,469.591146 1749.70182,485.790365 1761.24609,495.472656 C1769.06641,497.334635 1777.07292,499.196615 1785.26563,501.058594 C1799.78906,507.016927 1807.05078,517.257812 1807.05078,531.78125 Z M1659.02344,526.753906 C1659.02344,513.720052 1654.36849,501.896484 1645.05859,491.283203 C1635.7487,480.669922 1624.76302,475.363281 1612.10156,475.363281 C1594.22656,475.363281 1571.69661,504.96875 1544.51172,564.179688 C1620.85286,545.559896 1659.02344,533.084635 1659.02344,526.753906 Z" id="Shape"></path>
                <path d="M1479.15625,330.6875 C1479.15625,390.643229 1446.94401,442.033854 1382.51953,484.859375 C1332.99089,518.002604 1257.95312,541.835938 1157.40625,556.359375 C1156.66146,572.744792 1170.9987,585.40625 1200.41797,594.34375 C1221.64453,600.674479 1243.61589,603.839844 1266.33203,603.839844 C1277.13151,603.839844 1282.53125,612.777344 1282.53125,630.652344 C1282.53125,648.154948 1278.2487,665.285156 1269.68359,682.042969 C1260.0013,700.66276 1249.20182,709.972656 1237.28516,709.972656 C1197.06641,709.972656 1163.17839,703.083333 1135.62109,689.304688 C1096.14714,669.195312 1076.41016,637.169271 1076.41016,593.226563 C1076.41016,583.916667 1077.34115,574.048177 1079.20312,563.621094 C1034.51562,563.621094 1003.04818,546.490885 984.800781,512.230469 C943.83724,550.214844 886.488281,569.207031 812.753906,569.207031 C801.954427,569.207031 796.554688,559.897135 796.554688,541.277344 C796.554688,524.147135 800.83724,507.203125 809.402344,490.445313 C818.71224,472.197917 829.511719,463.074219 841.800781,463.074219 C876.061198,463.074219 916.652344,451.902344 963.574219,429.558594 C972.139323,425.46224 985.545573,414.66276 1003.79297,397.160156 C1019.43359,382.264323 1029.48828,375.375 1033.95703,376.492187 C1040.66016,377.609375 1044.01172,381.705729 1044.01172,388.78125 C1044.01172,391.760417 1043.17383,397.346354 1041.49805,405.539062 C1039.82227,413.731771 1038.98437,419.876302 1038.98437,423.972656 C1038.98437,427.324219 1039.35677,430.303385 1040.10156,432.910156 C1044.94271,449.295573 1071.56901,455.626302 1119.98047,451.902344 C1166.15755,399.766927 1212.14844,354.520833 1257.95312,316.164062 C1316.79167,267.007812 1360.73438,242.429688 1389.78125,242.429688 C1449.36458,242.429688 1479.15625,271.848958 1479.15625,330.6875 Z M1386.98828,378.726563 C1387.36068,376.864583 1387.54688,375.188802 1387.54688,373.699219 C1387.54688,356.56901 1370.41667,348.003906 1336.15625,348.003906 C1311.57812,348.003906 1267.07682,380.402344 1202.65234,445.199219 C1235.05078,440.730469 1271.91797,431.606771 1313.25391,417.828125 C1359.05859,402.559896 1383.63672,389.526042 1386.98828,378.726563 Z" id="Shape"></path>
                <path d="M841.800781,463.074219 C852.227865,463.074219 857.441406,472.011719 857.441406,489.886719 C857.441406,507.389323 853.158854,524.519531 844.59375,541.277344 C835.283854,559.897135 824.484375,569.207031 812.195312,569.207031 C779.796875,569.207031 758.75651,563.0625 749.074219,550.773438 C740.509115,539.973958 734.550781,515.023437 731.199219,475.921875 C721.144531,381.705729 709.786458,260.304688 697.125,111.71875 C696.007813,89.7473958 701.407552,65.6347656 713.324219,39.3808594 C725.240885,13.1269531 735.854167,0 745.164063,0 C757.080729,0 766.576823,38.2636719 773.652344,114.791016 C780.727865,191.318359 789.851563,291.027344 801.023438,413.917969 C802.885417,433.282552 805.678385,445.757813 809.402344,451.34375 C814.615885,459.164062 825.415365,463.074219 841.800781,463.074219 Z" id="Path"></path>
                <path d="M544.628906,123.449219 C544.628906,140.207031 539.973958,158.454427 530.664062,178.191406 C519.492188,201.279948 506.272135,212.824219 491.003906,212.824219 C472.75651,212.824219 457.860677,207.052083 446.316406,195.507812 C437.751302,186.942708 433.46875,178.936198 433.46875,171.488281 C433.46875,162.923177 439.613281,147.46875 451.902344,125.125 C465.68099,99.8020833 478.15625,87.140625 489.328125,87.140625 C500.5,87.140625 512.509766,91.4231771 525.357422,99.9882812 C538.205078,108.553385 544.628906,116.373698 544.628906,123.449219 Z M596.578125,420.621094 C596.578125,474.990885 579.634115,520.795573 545.746094,558.035156 C491.748698,617.61849 411.125,647.410156 303.875,647.410156 C293.075521,647.410156 287.675781,638.286458 287.675781,620.039063 C287.675781,602.908854 292.23763,585.499349 301.361328,567.810547 C310.485026,550.121745 321.005208,541.277344 332.921875,541.277344 C370.161458,541.277344 411.218099,534.108724 456.091797,519.771484 C500.965495,505.434245 523.402344,491.5625 523.402344,478.15625 C523.402344,466.611979 521.540365,458.233073 517.816406,453.019531 C500.313802,465.308594 484.114583,471.453125 469.21875,471.453125 C453.578125,471.453125 440.63737,465.215495 430.396484,452.740234 C420.155599,440.264974 415.035156,424.345052 415.035156,404.980469 C415.035156,367.740885 424.717448,336.832031 444.082031,312.253906 C461.584635,290.282552 481.321615,279.296875 503.292969,279.296875 C524.519531,279.296875 543.884115,288.979167 561.386719,308.34375 C584.847656,334.039062 596.578125,371.464844 596.578125,420.621094 Z" id="Shape"></path>
                <path d="M280.925781,350.164062 C257.83724,369.528646 223.204427,377.348958 177.027344,373.625 C162.13151,372.507812 145.001302,367.852865 125.636719,359.660156 C104.410156,350.722656 93.0520833,341.971354 91.5625,333.40625 C90.0729167,324.46875 94.3554688,318.324219 104.410156,314.972656 C118.561198,311.99349 132.71224,309.200521 146.863281,306.59375 C188.94401,297.283854 228.417969,282.015625 265.285156,260.789062 C273.477865,255.947917 280.367188,253.527344 285.953125,253.527344 C298.614583,253.527344 304.945313,263.395833 304.945313,283.132812 C304.945313,314.786458 296.938802,337.130208 280.925781,350.164062 Z M332.921875,541.277344 C343.721354,541.277344 349.121094,550.214844 349.121094,568.089844 C349.121094,585.592448 344.838542,602.722656 336.273438,619.480469 C326.591146,638.10026 315.791667,647.410156 303.875,647.410156 C295.682292,647.410156 283.858724,646.106771 268.404297,643.5 C252.94987,640.893229 242.24349,639.589844 236.285156,639.589844 C202.397135,639.589844 168.322917,661.188802 134.0625,704.386719 C105.015625,748.329427 75.7825521,792.272135 46.3632812,836.214844 C33.7018229,855.207031 20.2955729,864.703125 6.14453125,864.703125 C2.04817708,864.703125 0,862.46875 0,858 C0,851.669271 16.9440104,815.546875 50.8320312,749.632813 C125.683594,604.398438 196.438802,531.78125 263.097656,531.78125 C266.821615,531.78125 276.13151,533.363932 291.027344,536.529297 C305.923177,539.694661 319.888021,541.277344 332.921875,541.277344 Z" id="Shape"></path>
            </g>
        </g>
    </g>
</svg>